<svg id="Capa_1" enable-background="new 0 0 511.842 511.842" height="512" viewBox="0 0 511.842 511.842" width="512" xmlns="http://www.w3.org/2000/svg"><g><path d="m442.309 204.348-8.425 21.531c-1.509 3.857.394 8.208 4.251 9.717.897.351 1.822.518 2.731.518 2.997 0 5.828-1.809 6.986-4.769l8.425-21.531c1.509-3.857-.394-8.208-4.251-9.717-3.855-1.508-8.208.394-9.717 4.251z"/><path d="m58.816 200.097c-3.857 1.509-5.761 5.86-4.251 9.717l8.425 21.531c1.158 2.96 3.989 4.769 6.986 4.769.909 0 1.833-.167 2.731-.518 3.857-1.509 5.761-5.86 4.251-9.717l-8.425-21.531c-1.509-3.857-5.858-5.76-9.717-4.251z"/><path d="m507.77 370.151-20.27-15.854c-14.7-11.498-32.164-19.396-50.505-22.84l-9.611-1.805c12.299-8.076 23.666-17.677 33.762-28.685 2.8-3.053 2.595-7.797-.458-10.597-3.053-2.799-7.796-2.594-10.597.458-31.148 33.964-75.42 53.443-121.465 53.443h-2.843c46.374-14.144 86.108-45.733 110.204-88.06 2.049-3.6.792-8.179-2.808-10.229-3.6-2.048-8.179-.792-10.229 2.808-24.01 42.176-64.868 72.796-112.097 84.008l-8.176 1.941c32.309-26.804 54.279-64.151 61.839-106.468 2.831-15.849 3.511-31.742 2.168-47.335 18.788-11.393 40.22-17.395 62.271-17.395h43.892c6.867 0 13.49-2.053 19.154-5.937l1.399-.959v22.851c0 30.739-8.528 60.732-24.663 86.737-2.184 3.52-1.101 8.144 2.419 10.327 1.231.764 2.597 1.128 3.947 1.128 2.509 0 4.96-1.258 6.38-3.547 17.609-28.382 26.917-61.11 26.917-94.646v-24.412c0-5.277-2.9-10.083-7.569-12.543s-10.274-2.135-14.626.851l-2.687 1.842c-3.155 2.164-6.846 3.307-10.671 3.307h-34.881l1.852-10.034c2.811-15.226 3.308-30.743 1.478-46.119l-3.626-30.468c-.892-7.501-7.487-13.005-15.037-12.538-34.222 2.136-66.648 15.633-92.232 38.211-2.584-3.373-5.283-6.679-8.125-9.895l-4.787-5.417c-2.744-3.104-7.484-3.398-10.586-.654-3.104 2.743-3.396 7.483-.654 10.586l4.787 5.417c33.499 37.904 47.609 88.204 38.713 138.001-8.896 49.798-39.55 92.101-84.101 116.062-.888.477-1.801.882-2.729 1.227v-232.119c0-4.142-3.358-7.5-7.5-7.5s-7.5 3.358-7.5 7.5v232.121c-.929-.345-1.842-.75-2.729-1.227-23.19-12.472-42.459-29.622-57.271-50.972-2.36-3.403-7.033-4.248-10.437-1.887-3.403 2.361-4.249 7.034-1.887 10.437 9.273 13.367 20.154 25.21 32.512 35.454l-8.121-1.928c-47.228-11.212-88.086-41.832-112.096-84.008-2.049-3.6-6.628-4.856-10.229-2.808-3.6 2.049-4.856 6.629-2.808 10.229 24.096 42.327 63.83 73.916 110.204 88.06h-2.843c-90.857 0-164.775-73.917-164.775-164.774v-22.851l1.399.959c5.664 3.883 12.287 5.936 19.154 5.936h43.892c22.063 0 43.508 6.008 62.303 17.414-2.62 30.346 2.445 60.884 14.864 88.882 1.241 2.798 3.984 4.461 6.86 4.461 1.016 0 2.049-.208 3.037-.646 3.787-1.68 5.494-6.111 3.815-9.897-12.574-28.346-16.959-59.527-12.681-90.174 4.447-31.857 18.182-61.579 39.721-85.949l54.104-61.219c.498-.563 1.098-.682 1.513-.682s1.015.118 1.513.682l28.111 31.808c2.742 3.103 7.481 3.396 10.586.653 3.104-2.743 3.396-7.482.653-10.586l-28.111-31.808c-3.229-3.653-7.876-5.748-12.752-5.748s-9.523 2.095-12.752 5.748l-54.104 61.219c-2.838 3.211-5.549 6.51-8.136 9.886-25.583-22.573-58.005-36.066-92.222-38.202-7.533-.474-14.144 5.036-15.036 12.537l-3.626 30.469c-1.83 15.376-1.333 30.893 1.478 46.119l1.852 10.034h-34.88c-3.826 0-7.516-1.144-10.671-3.307l-2.688-1.843c-4.353-2.984-9.957-3.31-14.626-.85-4.668 2.459-7.569 7.266-7.569 12.543v24.412c0 62.779 32.354 118.135 81.256 150.298l-8.85 1.662c-18.341 3.444-35.805 11.342-50.505 22.84l-20.27 15.854c-3.267 2.556-4.722 6.655-3.797 10.698s4.017 7.103 8.071 7.984l2.733.594c5.938 1.292 11.17 4.714 14.731 9.637l8.905 12.31c22.458 31.045 57.886 48.475 94.704 48.473 11.873 0 23.894-1.813 35.666-5.567l17.38-5.541c13.553 17.308 30.232 32.24 49.447 43.88l5.847 3.542c5.447 3.3 11.555 4.95 17.663 4.95s12.215-1.65 17.663-4.95l5.847-3.542c19.309-11.698 36.059-26.719 49.648-44.135l18.18 5.796c11.775 3.754 23.791 5.567 35.666 5.567 36.814-.001 72.247-17.43 94.704-48.473l8.905-12.31c3.562-4.923 8.793-8.346 14.73-9.637l2.735-.595c4.053-.881 7.146-3.94 8.07-7.983s-.531-8.142-3.799-10.698zm-168.688-270.196c23.104-20.889 52.596-33.449 83.778-35.555l3.542 29.761c1.651 13.878 1.203 27.882-1.334 41.624l-2.384 12.919c-20.414.943-40.212 6.471-58.117 16.192-4.105-22.991-12.709-45.027-25.485-64.941zm-254.643-5.794 3.542-29.762c31.178 2.107 60.674 14.656 83.776 35.54-12.693 19.784-21.354 41.79-25.48 64.96-17.906-9.723-37.705-15.252-58.12-16.195l-2.384-12.919c-2.536-13.742-2.985-27.746-1.334-41.624zm76.089 345.827c-42.092 13.42-87.766-1.613-113.66-37.407l-8.905-12.309c-4.504-6.227-10.669-10.961-17.742-13.71l13.361-10.451c12.816-10.024 28.042-16.91 44.032-19.913l26.238-4.927c12.626 6.141 26.075 10.838 40.131 13.894l2.227 12.502c4.384 24.617 13.694 47.779 27.068 68.256zm110.63 39.801-5.847 3.542c-6.101 3.695-13.68 3.695-19.78 0l-5.847-3.542c-41.509-25.147-70.196-66.973-78.706-114.752l-1.278-7.173c7.377.926 14.891 1.407 22.515 1.407h146.411c7.565 0 15.085-.491 22.52-1.436l-1.283 7.203c-8.509 47.779-37.196 89.604-78.705 114.751zm202.721-89.517-8.905 12.31c-25.893 35.794-71.568 50.825-113.66 37.407l-13.576-4.328c13.281-20.412 22.528-43.482 26.893-67.993l2.235-12.548c13.97-3.056 27.51-7.767 40.329-13.997l27.032 5.076c15.99 3.003 31.216 9.889 44.032 19.913l13.361 10.451c-7.072 2.748-13.237 7.483-17.741 13.709z"/></g></svg>