<svg width="17" height="17" viewBox="0 0 17 17" fill="none" xmlns="http://www.w3.org/2000/svg">
<path d="M8.83112 5.68315C8.92072 5.77661 9.03185 5.84632 9.15366 5.88549C9.27546 5.92465 9.40378 5.93194 9.52608 5.90662C9.66368 5.8798 9.79042 5.81776 9.89425 5.72641C9.99809 5.63505 10.0756 5.5174 10.1193 5.38466L11.1029 2.37449C11.143 2.25129 11.1481 2.11773 11.1175 1.98838C11.0868 1.85903 11.0217 1.73888 10.9292 1.64104C10.8368 1.5432 10.7204 1.47145 10.593 1.43361C10.4656 1.39577 10.332 1.39331 10.2067 1.4265L7.14616 2.23939C7.01116 2.27563 6.88935 2.34639 6.79231 2.44493C6.69526 2.54347 6.6262 2.66652 6.59169 2.80239C6.55953 2.92307 6.55958 3.05159 6.59182 3.1754C6.62407 3.29921 6.68741 3.41409 6.77566 3.50881L7.33785 4.10352L3.27425 7.94493L2.9639 7.61662C2.93288 7.58381 2.89322 7.5606 2.85002 7.54999C2.80683 7.53938 2.76208 7.54185 2.72156 7.55708L1.62974 7.96751C1.60395 7.9772 1.58049 7.99184 1.56061 8.01064L0.779145 8.74937C0.654979 8.86704 0.584896 9.03163 0.58427 9.20705C0.583643 9.38246 0.652525 9.55438 0.775804 9.68507L2.32759 11.3266C2.45116 11.457 2.61893 11.5355 2.79411 11.5447C2.96928 11.5539 3.13755 11.4932 3.262 11.3758L4.04346 10.6371C4.06335 10.6183 4.07928 10.5957 4.09041 10.5705L4.56152 9.50346C4.579 9.46386 4.58398 9.41932 4.57581 9.3756C4.56764 9.33188 4.5467 9.29097 4.51568 9.25816L4.20532 8.92986L8.26892 5.08844L8.83112 5.68315ZM4.09802 9.4425L3.703 10.3373L2.95165 11.0475C2.91016 11.0867 2.85407 11.1069 2.79568 11.1038C2.73729 11.1007 2.68136 11.0746 2.64018 11.0311L1.08839 9.38958C1.04729 9.34602 1.02433 9.28871 1.02454 9.23024C1.02475 9.17177 1.04811 9.1169 1.0895 9.07768L1.84086 8.36741L2.75637 8.02325L3.11685 8.40458C3.158 8.44811 3.21394 8.4743 3.27235 8.47738C3.33076 8.48046 3.38687 8.46017 3.42832 8.42098L4.83495 7.09127L5.14531 7.41957L3.73868 8.74929C3.69722 8.78848 3.67382 8.84335 3.67361 8.90185C3.6734 8.96034 3.69641 9.01766 3.73756 9.06119L4.09802 9.4425ZM5.77047 6.82859L5.45789 7.12408L5.14753 6.79577L5.46012 6.50028L5.77047 6.82859ZM5.7727 6.20479L8.42967 3.69309C8.45085 3.67306 8.47609 3.65777 8.50385 3.64813C8.53161 3.6385 8.56131 3.63472 8.59115 3.63704C8.62099 3.63936 8.65035 3.64772 8.67743 3.66161C8.70452 3.67551 8.72878 3.69465 8.74872 3.71787C8.78587 3.76437 8.80472 3.82241 8.80146 3.88029C8.79821 3.93817 8.7731 3.99158 8.7312 4.02975L6.08306 6.53309L5.7727 6.20479ZM9.07549 3.43808C9.01575 3.36839 8.943 3.31101 8.86171 3.26948C8.78042 3.22796 8.69233 3.20316 8.60284 3.19663C8.5135 3.18997 8.42462 3.20144 8.34153 3.23033C8.25844 3.25923 8.18286 3.30496 8.11931 3.36478L7.65044 3.80802L7.08824 3.21331C6.98829 3.10758 7.00674 2.97952 7.0192 2.92923C7.03537 2.86585 7.06764 2.80848 7.11296 2.76255C7.15828 2.71662 7.21514 2.68366 7.27814 2.6668L10.3387 1.85387C10.3869 1.84117 10.4383 1.84216 10.4873 1.85674C10.5363 1.87132 10.5811 1.89893 10.6166 1.93656C10.6522 1.97419 10.6773 2.0204 10.6891 2.07014C10.7009 2.11989 10.699 2.17126 10.6836 2.21867L9.70006 5.22872C9.67969 5.29064 9.6436 5.34554 9.59521 5.38819C9.54683 5.43084 9.48775 5.45984 9.4236 5.47242C9.37277 5.48212 9.24379 5.49327 9.14384 5.38753L8.58165 4.79282L9.04155 4.35806C9.16458 4.24439 9.23676 4.08531 9.24308 3.91395C9.2494 3.74258 9.18937 3.57213 9.07549 3.43808Z" fill="white"/>
<path d="M2.13668 8.62236L1.51151 9.21334C1.47006 9.25253 1.44198 9.30246 1.43345 9.35215C1.42492 9.40184 1.43664 9.44722 1.46602 9.47831L2.13088 10.1816C2.16027 10.2127 2.20492 10.227 2.25502 10.2212C2.30511 10.2155 2.35654 10.1903 2.39799 10.1511L3.02316 9.56011C3.06461 9.52093 3.09269 9.471 3.10122 9.42131C3.10975 9.37161 3.09803 9.32623 3.06864 9.29514L2.40378 8.59183C2.37439 8.56074 2.32974 8.54649 2.27965 8.55222C2.22956 8.55794 2.17813 8.58317 2.13668 8.62236ZM2.202 9.00454L2.64524 9.47342L2.33266 9.76891L1.88942 9.30003L2.202 9.00454Z" fill="white"/>
<path d="M6.12593 12.8411L5.50076 13.4321C5.45931 13.4713 5.43123 13.5212 5.4227 13.5709C5.41417 13.6206 5.42589 13.666 5.45528 13.6971L6.12014 14.4004C6.14953 14.4315 6.19418 14.4457 6.24427 14.44C6.29437 14.4343 6.34579 14.409 6.38725 14.3698L7.01241 13.7789C7.05387 13.7397 7.08195 13.6897 7.09047 13.6401C7.099 13.5904 7.08729 13.545 7.0579 13.5139L6.39304 12.8106C6.36365 12.7795 6.319 12.7652 6.26891 12.771C6.21881 12.7767 6.16739 12.8019 6.12593 12.8411ZM6.19126 13.2233L6.6345 13.6922L6.32192 13.9877L5.87868 13.5188L6.19126 13.2233Z" fill="white"/>
<path d="M13.7297 4.60446L13.549 4.4133C13.4259 4.28343 13.2621 4.20136 13.0908 4.18373C12.9196 4.16609 12.7537 4.21422 12.6269 4.31834L10.2769 6.25475C10.2735 6.25759 10.2701 6.26055 10.2669 6.26365L9.95427 6.55914C9.74733 6.75525 9.63368 7.03292 9.63826 7.33124C9.64284 7.62955 9.76527 7.92414 9.9787 8.15038L10.4622 8.66188L7.0238 11.9123L6.70145 11.5713C6.66923 11.5372 6.6284 11.5128 6.58421 11.5011C6.54002 11.4895 6.49451 11.4911 6.45354 11.5059L5.34972 11.9036C5.32365 11.913 5.30004 11.9275 5.28016 11.9463L4.4987 12.685C4.37453 12.8027 4.30634 12.9693 4.30909 13.1483C4.31183 13.3273 4.3853 13.504 4.51335 13.6398L6.12514 15.3448C6.25347 15.4803 6.42582 15.5635 6.60437 15.5763C6.78292 15.5891 6.95309 15.5304 7.07755 15.413L7.85901 14.6743C7.87889 14.6555 7.89468 14.6327 7.90553 14.6072L8.36464 13.5275C8.38168 13.4874 8.38588 13.4421 8.37672 13.3973C8.36756 13.3525 8.34544 13.3104 8.31323 13.2763L7.99087 12.9353L11.4293 9.68489L11.9128 10.1964C12.1267 10.4222 12.414 10.561 12.7116 10.5823C13.0092 10.6036 13.2928 10.5058 13.5002 10.3102L13.8128 10.0147C13.816 10.0116 13.8193 10.0085 13.8222 10.0051L15.8876 7.76766C15.9987 7.64684 16.056 7.48394 16.048 7.31198C16.0401 7.14002 15.9673 6.97187 15.8446 6.84162L15.6639 6.65047C15.6211 6.60525 15.5636 6.57745 15.5041 6.57318C15.4446 6.56891 15.3878 6.58853 15.3464 6.62771L13.002 8.84391L12.6796 8.50291L14.7114 6.5822C14.8358 6.46465 14.9041 6.29802 14.9014 6.11897C14.8986 5.93992 14.825 5.76312 14.6968 5.62746C14.5685 5.4918 14.3962 5.4084 14.2175 5.3956C14.0389 5.3828 13.8687 5.44165 13.7444 5.5592L11.7126 7.47991L11.3902 7.13891L13.7346 4.9227C13.7761 4.88352 13.7988 4.82798 13.7979 4.76829C13.797 4.70861 13.7725 4.64968 13.7297 4.60446ZM7.89153 13.4564L7.50655 14.3618L6.75519 15.072C6.71371 15.1112 6.65698 15.1307 6.59747 15.1265C6.53795 15.1222 6.4805 15.0944 6.43772 15.0493L4.82594 13.3443C4.78325 13.299 4.75876 13.2401 4.75785 13.1804C4.75693 13.1208 4.77966 13.0652 4.82105 13.026L5.57241 12.3157L6.49798 11.9822L6.8724 12.3783C6.91514 12.4235 6.97261 12.4513 7.03214 12.4556C7.09168 12.4599 7.14842 12.4402 7.18987 12.4011L7.97133 11.6623L8.29369 12.0033L7.51222 12.7421C7.47077 12.7812 7.448 12.8368 7.44892 12.8965C7.44983 12.9562 7.47436 13.0151 7.51711 13.0603L7.89153 13.4564ZM8.91886 11.4123L8.60627 11.7078L8.28391 11.3668L8.5965 11.0713L8.91886 11.4123ZM8.90908 10.7758L10.7846 9.00288L11.1069 9.34389L9.23144 11.1168L8.90908 10.7758ZM11.5612 7.9459C11.6039 7.99112 11.6614 8.01892 11.7209 8.02319C11.7805 8.02746 11.8372 8.00784 11.8786 7.96866L14.0667 5.9002C14.1082 5.86102 14.1649 5.8414 14.2245 5.84567C14.284 5.84993 14.3415 5.87774 14.3842 5.92296C14.427 5.96818 14.4515 6.02711 14.4524 6.08679C14.4533 6.14647 14.4305 6.20202 14.3891 6.2412L12.201 8.30966C12.1595 8.34884 12.1368 8.40439 12.1377 8.46407C12.1386 8.52375 12.1631 8.58269 12.2059 8.62791L12.8506 9.30991C12.8933 9.35513 12.9508 9.38293 13.0103 9.3872C13.0699 9.39146 13.1266 9.37185 13.1681 9.33266L15.5125 7.11646L15.532 7.13711C15.5729 7.18053 15.5971 7.23658 15.5998 7.2939C15.6025 7.35122 15.5833 7.40551 15.5463 7.44579L13.4855 9.67828L13.1778 9.96916C13.0534 10.0865 12.8832 10.1452 12.7047 10.1324C12.5261 10.1196 12.3538 10.0364 12.2254 9.9009L10.2913 7.85489C10.1632 7.71914 10.0898 7.54239 10.087 7.3634C10.0843 7.18442 10.1525 7.01781 10.2766 6.90014L10.5843 6.60927L12.9291 4.67715C12.9713 4.64244 13.0266 4.6264 13.0837 4.63228C13.1408 4.63815 13.1954 4.66551 13.2364 4.7088L13.256 4.72945L10.9116 6.94565C10.8701 6.98484 10.8473 7.04038 10.8483 7.10006C10.8492 7.15975 10.8737 7.21868 10.9165 7.2639L11.5612 7.9459Z" fill="white"/>
</svg>
