<?xml version="1.0" encoding="iso-8859-1"?>
<!-- Generator: Adobe Illustrator 19.0.0, SVG Export Plug-In . SVG Version: 6.00 Build 0)  -->
<svg version="1.1" id="Capa_1" xmlns="http://www.w3.org/2000/svg" xmlns:xlink="http://www.w3.org/1999/xlink" x="0px" y="0px"
	 viewBox="0 0 418.56 418.56" style="enable-background:new 0 0 418.56 418.56;" xml:space="preserve">
<g>
	<g>
		<path d="M401.76,223.88c9.278,0,16.8-7.522,16.8-16.8v-55.12c0-9.278-7.522-16.8-16.8-16.8h-18.24V89.24
			c0-1.907-0.681-3.751-1.92-5.2l-42-49.2c-2.872-3.358-7.921-3.752-11.279-0.881c-0.316,0.27-0.61,0.565-0.881,0.881l-42,49.2
			c-1.239,1.449-1.92,3.293-1.92,5.2v45.92h-24V89.24c0-1.907-0.681-3.751-1.92-5.2l-42.24-49.2
			c-2.872-3.358-7.922-3.752-11.279-0.881c-0.316,0.27-0.61,0.565-0.881,0.881l-41.92,49.2c-1.239,1.449-1.92,3.293-1.92,5.2v45.92
			h-24V89.24c0-1.907-0.681-3.751-1.92-5.2l-42.32-49.2c-2.872-3.358-7.922-3.752-11.279-0.881c-0.316,0.27-0.61,0.565-0.881,0.881
			l-42,49.2c-1.239,1.449-1.92,3.293-1.92,5.2v45.92H16.8c-9.278,0-16.8,7.522-16.8,16.8v55.12c0,9.278,7.522,16.8,16.8,16.8h18.24
			v26.64H16.8c-9.278,0-16.8,7.522-16.8,16.8v55.12c0,9.278,7.522,16.8,16.8,16.8h18.24v39.28c0,4.418,3.582,8,8,8h83.92
			c4.418,0,8-3.582,8-8v-39.36h24v39.28c0,4.418,3.582,8,8,8h84.32c4.418,0,8-3.582,8-8v-39.28h24v39.28c0,4.418,3.582,8,8,8h84.24
			c4.418,0,8-3.582,8-8v-39.28h18.24c9.278,0,16.8-7.522,16.8-16.8v-55.12c0-9.278-7.522-16.8-16.8-16.8h-18.24v-26.56H401.76z
			 M299.6,92.2l34-40l34,40v42.96h-68V92.2z M175.36,92.2l34-40l34,40v42.96h-68.08L175.36,92.2z M51.12,92.2l34-40l34,40v42.96
			H51.04L51.12,92.2z M51.04,370.52v-31.36h67.92l0.08,31.36H51.04z M175.28,370.52v-31.36h67.92l0.08,31.36H175.28z M367.52,370.52
			H299.6v-31.36h67.92V370.52z M401.76,266.52c0.442,0,0.8,0.358,0.8,0.8v55.12c0,0.442-0.358,0.8-0.8,0.8H16.8
			c-0.442,0-0.8-0.358-0.8-0.8v-55.2c0-0.442,0.358-0.8,0.8-0.8L401.76,266.52z M51.04,250.52v-26.64h67.92v26.64H51.04z
			 M134.96,250.52v-26.64h24v26.64H134.96z M174.96,250.52v-26.64h67.92v26.64H174.96z M258.88,250.52v-26.64h24v26.64H258.88z
			 M298.88,250.52v-26.64h67.92v26.64H298.88z M16.8,207.88c-0.442,0-0.8-0.358-0.8-0.8v-55.12c0-0.442,0.358-0.8,0.8-0.8h384.96
			c0.442,0,0.8,0.358,0.8,0.8l-0.64,55.12c0,0.442-0.358,0.8-0.8,0.8H16.8z"/>
	</g>
</g>
<g>
	<g>
		<circle cx="85.04" cy="179.48" r="11.68"/>
	</g>
</g>
<g>
	<g>
		<circle cx="85.04" cy="294.84" r="11.68"/>
	</g>
</g>
<g>
	<g>
		<circle cx="209.28" cy="179.48" r="11.68"/>
	</g>
</g>
<g>
	<g>
		<circle cx="209.28" cy="294.84" r="11.68"/>
	</g>
</g>
<g>
	<g>
		<circle cx="333.52" cy="179.48" r="11.68"/>
	</g>
</g>
<g>
	<g>
		<circle cx="333.52" cy="294.84" r="11.68"/>
	</g>
</g>
<g>
</g>
<g>
</g>
<g>
</g>
<g>
</g>
<g>
</g>
<g>
</g>
<g>
</g>
<g>
</g>
<g>
</g>
<g>
</g>
<g>
</g>
<g>
</g>
<g>
</g>
<g>
</g>
<g>
</g>
</svg>
