<svg width="15" height="11" viewBox="0 0 15 11" fill="none" xmlns="http://www.w3.org/2000/svg">
<path d="M13.5352 0H5.56641C5.40459 0 5.27344 0.129585 5.27344 0.289474C5.27344 0.449363 5.40459 0.578947 5.56641 0.578947H13.5352C14.0198 0.578947 14.4141 0.968493 14.4141 1.44737V9.55263C14.4141 10.0315 14.0198 10.4211 13.5352 10.4211H1.46484C0.980186 10.4211 0.585938 10.0315 0.585938 9.55263V1.44737C0.585938 0.968493 0.980186 0.578947 1.46484 0.578947H3.22266C3.38448 0.578947 3.51562 0.449363 3.51562 0.289474C3.51562 0.129585 3.38448 0 3.22266 0H1.46484C0.65712 0 0 0.64928 0 1.44737V9.55263C0 10.3507 0.65712 11 1.46484 11H13.5352C14.3429 11 15 10.3507 15 9.55263V1.44737C15 0.64928 14.3429 0 13.5352 0Z" fill="white"/>
<path d="M4 2C2.34583 2 1 3.12152 1 4.5C1 5.87848 2.34583 7 4 7C5.65417 7 7 5.87848 7 4.5C7 3.12152 5.65417 2 4 2ZM2.64307 6.12292C2.86816 5.67198 3.40027 5.36934 4 5.36934C4.59973 5.36934 5.13196 5.67198 5.35706 6.12292C4.97205 6.34713 4.50427 6.47917 4 6.47917C3.49573 6.47917 3.02795 6.34713 2.64307 6.12292ZM3.4314 4.37467V4.27681C3.4314 4.01548 3.68652 3.80298 4 3.80298C4.31348 3.80298 4.5686 4.01548 4.5686 4.27681V4.37467C4.5686 4.6359 4.31348 4.84851 4 4.84851C3.68652 4.84851 3.4314 4.6359 3.4314 4.37467ZM5.83643 5.75346C5.62476 5.43241 5.29761 5.17708 4.90662 5.02053C5.08533 4.84658 5.1936 4.62105 5.1936 4.37467V4.27681C5.1936 3.72831 4.65808 3.28215 4 3.28215C3.34192 3.28215 2.8064 3.72831 2.8064 4.27681V4.37467C2.8064 4.62105 2.91467 4.84658 3.09338 5.02053C2.70239 5.17698 2.37524 5.43241 2.16357 5.75346C1.82727 5.41187 1.625 4.97526 1.625 4.5C1.625 3.40869 2.69043 2.52083 4 2.52083C5.30957 2.52083 6.375 3.40869 6.375 4.5C6.375 4.97526 6.17273 5.41187 5.83643 5.75346Z" fill="white"/>
<path d="M8.30488 5H12.6951C12.8635 5 13 4.91047 13 4.8V3.2C13 3.08953 12.8635 3 12.6951 3H8.30488C8.13648 3 8 3.08953 8 3.2V4.8C8 4.91047 8.13648 5 8.30488 5ZM8.60976 3.4H12.3902V4.6H8.60976V3.4Z" fill="white"/>
<path d="M8.30488 7H12.6951C12.8635 7 13 6.77617 13 6.5C13 6.22383 12.8635 6 12.6951 6H8.30488C8.13648 6 8 6.22383 8 6.5C8 6.77617 8.13648 7 8.30488 7Z" fill="white"/>
<path d="M4.5 1C4.63145 1 4.76055 0.946484 4.85352 0.853516C4.94648 0.760547 5 0.631445 5 0.5C5 0.368555 4.94648 0.239453 4.85352 0.146484C4.76055 0.0535156 4.63145 0 4.5 0C4.36855 0 4.23945 0.0535156 4.14648 0.146484C4.05352 0.239453 4 0.368555 4 0.5C4 0.631445 4.05352 0.760547 4.14648 0.853516C4.23945 0.946484 4.36855 1 4.5 1Z" fill="white"/>
</svg>
