<svg width="15" height="15" viewBox="0 0 15 15" fill="none" xmlns="http://www.w3.org/2000/svg">
<path d="M12.1536 7.71973H12.8069C12.9091 8.22554 13.357 8.60757 13.8925 8.60757C14.5032 8.60757 15 8.11072 15 7.5C15 6.88928 14.5032 6.39243 13.8924 6.39243C13.3569 6.39243 12.9091 6.77446 12.8068 7.28027H12.1536C12.1013 6.16105 11.6525 5.14374 10.9445 4.36623L12.1212 3.18958C12.3528 3.35824 12.6376 3.45812 12.9454 3.45812C13.7193 3.45812 14.3489 2.8285 14.3489 2.05459C14.3489 1.28068 13.7193 0.651094 12.9454 0.651094C12.1715 0.651094 11.5419 1.28071 11.5419 2.05459C11.5419 2.36241 11.6418 2.64721 11.8104 2.87883L10.6338 4.05548C9.85626 3.34749 8.83895 2.89863 7.71973 2.84643V2.19316C8.22554 2.09095 8.60757 1.64306 8.60757 1.10757C8.60757 0.496846 8.11072 0 7.5 0C6.88928 0 6.39243 0.496846 6.39243 1.10757C6.39243 1.64306 6.77446 2.09095 7.28027 2.19316V2.8464C6.16105 2.89863 5.14374 3.34746 4.36623 4.05545L3.18964 2.87889C3.35833 2.64724 3.4582 2.36241 3.4582 2.05459C3.4582 1.58725 3.22673 1.15204 2.83901 0.89042C2.73835 0.822568 2.6018 0.849053 2.53397 0.949658C2.46609 1.05026 2.49261 1.18682 2.59318 1.2547C2.85967 1.43449 3.01872 1.73353 3.01872 2.05459C3.01872 2.58621 2.58618 3.01875 2.05456 3.01875C1.52294 3.01875 1.09043 2.58621 1.09043 2.05459C1.09043 1.62527 1.37856 1.24368 1.79112 1.12664C1.90787 1.09351 1.97566 0.972012 1.94253 0.855264C1.90939 0.738516 1.78784 0.670811 1.67118 0.703857C1.07048 0.874307 0.650977 1.42975 0.650977 2.05459C0.650977 2.82855 1.28062 3.4582 2.05459 3.4582C2.36244 3.4582 2.64727 3.35833 2.87889 3.18964L4.05548 4.3662C3.34746 5.14371 2.89863 6.16102 2.8464 7.28024H2.19316C2.09095 6.77443 1.64306 6.3924 1.10757 6.3924C0.496846 6.39243 0 6.88928 0 7.5C0 8.11072 0.496846 8.60757 1.10757 8.60757C1.64306 8.60757 2.09095 8.22554 2.19316 7.71973H2.84643C2.89866 8.83895 3.34749 9.85626 4.05551 10.6338L2.87883 11.8104C2.64721 11.6418 2.36241 11.5419 2.05459 11.5419C1.28068 11.5419 0.651094 12.1715 0.651094 12.9454C0.651094 13.7193 1.28068 14.3489 2.05459 14.3489C2.8285 14.3489 3.45809 13.7193 3.45809 12.9454C3.45809 12.6376 3.35824 12.3528 3.18955 12.1212L4.36623 10.9445C5.14374 11.6525 6.16105 12.1014 7.28027 12.1536V12.8068C6.77446 12.909 6.39243 13.3569 6.39243 13.8924C6.39243 14.5032 6.88928 15 7.5 15C8.11072 15 8.60757 14.5032 8.60757 13.8924C8.60757 13.3569 8.22554 12.9091 7.71973 12.8068V12.1536C8.83895 12.1014 9.85626 11.6525 10.6338 10.9446L11.8104 12.1211C11.6417 12.3528 11.5418 12.6376 11.5418 12.9454C11.5418 13.7193 12.1714 14.349 12.9454 14.349C13.7194 14.349 14.349 13.7194 14.349 12.9454C14.349 12.7935 14.3248 12.6439 14.2771 12.5006C14.2387 12.3855 14.1142 12.3233 13.9992 12.3616C13.8841 12.4 13.8218 12.5244 13.8602 12.6396C13.893 12.7379 13.9096 12.8408 13.9096 12.9454C13.9096 13.477 13.4771 13.9095 12.9454 13.9095C12.4138 13.9095 11.9813 13.477 11.9813 12.9454C11.9813 12.4137 12.4138 11.9812 12.9454 11.9812C13.0671 11.9812 13.1858 12.0036 13.2981 12.0478C13.4109 12.0921 13.5386 12.0366 13.583 11.9236C13.6274 11.8107 13.5718 11.6832 13.4588 11.6387C13.2951 11.5744 13.1224 11.5418 12.9455 11.5418C12.6376 11.5418 12.3528 11.6416 12.1212 11.8103L10.9446 10.6338C11.6525 9.85626 12.1014 8.83895 12.1536 7.71973ZM13.8924 6.83188C14.2608 6.83188 14.5605 7.13159 14.5605 7.5C14.5605 7.86841 14.2608 8.16811 13.8924 8.16811C13.524 8.16811 13.2243 7.86841 13.2243 7.5C13.2243 7.13159 13.5241 6.83188 13.8924 6.83188ZM12.9454 1.09055C13.477 1.09055 13.9095 1.52303 13.9095 2.05459C13.9095 2.58618 13.477 3.01866 12.9454 3.01866C12.4138 3.01866 11.9814 2.58618 11.9814 2.05459C11.9814 1.523 12.4138 1.09055 12.9454 1.09055ZM6.83188 1.10757C6.83188 0.73916 7.13162 0.439453 7.5 0.439453C7.86838 0.439453 8.16811 0.73916 8.16811 1.10757C8.16811 1.47598 7.86838 1.77568 7.5 1.77568C7.13162 1.77568 6.83188 1.47595 6.83188 1.10757ZM1.10757 8.16811C0.73916 8.16811 0.439453 7.86841 0.439453 7.5C0.439453 7.13159 0.73916 6.83188 1.10757 6.83188C1.47598 6.83188 1.77565 7.13159 1.77565 7.5C1.77565 7.86841 1.47595 8.16811 1.10757 8.16811ZM7.5 3.28055C9.82661 3.28055 11.7195 5.17339 11.7195 7.5C11.7195 9.82661 9.82661 11.7195 7.5 11.7195C5.17339 11.7195 3.28055 9.82664 3.28055 7.5C3.28055 5.17336 5.17339 3.28055 7.5 3.28055ZM2.05459 13.9095C1.523 13.9095 1.09055 13.477 1.09055 12.9454C1.09055 12.4138 1.52303 11.9813 2.05459 11.9813C2.58615 11.9813 3.01863 12.4138 3.01863 12.9454C3.01863 13.477 2.58615 13.9095 2.05459 13.9095ZM8.16811 13.8924C8.16811 14.2608 7.86838 14.5605 7.5 14.5605C7.13162 14.5605 6.83188 14.2608 6.83188 13.8924C6.83188 13.524 7.13162 13.2243 7.5 13.2243C7.86838 13.2243 8.16811 13.5241 8.16811 13.8924Z" fill="white"/>
<path d="M5.01459 10.2053H6.25546C6.25613 10.2053 6.25678 10.2054 6.25745 10.2054C6.25813 10.2054 6.25877 10.2053 6.25944 10.2053H6.98773C7.10911 10.2053 7.20746 10.1069 7.20746 9.98558C7.20746 9.86423 7.10911 9.76585 6.98773 9.76585H6.47718V9.39378C6.47718 9.27243 6.37883 9.17405 6.25745 9.17405C6.13607 9.17405 6.03772 9.27243 6.03772 9.39378V9.76585H5.23432V8.68362C5.23432 8.152 5.66671 7.71946 6.19815 7.71946H8.80265C9.33412 7.71946 9.76648 8.152 9.76648 8.68362V9.76585H8.96308V9.39378C8.96308 9.27243 8.86473 9.17405 8.74335 9.17405C8.62197 9.17405 8.52362 9.27243 8.52362 9.39378V9.76585H8.01312C7.89175 9.76585 7.7934 9.86423 7.7934 9.98558C7.7934 10.1069 7.89175 10.2053 8.01312 10.2053H8.74142C8.74209 10.2053 8.74273 10.2054 8.74341 10.2054C8.74408 10.2054 8.74473 10.2053 8.7454 10.2053H9.98627C10.1076 10.2053 10.206 10.1069 10.206 9.98558V8.68362C10.206 7.90966 9.57649 7.28001 8.8027 7.28001H8.63958C8.98347 6.96882 9.19991 6.51923 9.19991 6.02001C9.19991 5.08292 8.43755 4.32056 7.50046 4.32056C6.56337 4.32056 5.80101 5.08292 5.80101 6.02001C5.80101 6.51923 6.01745 6.96882 6.36134 7.28001H6.19821C5.42442 7.28001 4.79492 7.90966 4.79492 8.68362V9.98558C4.79486 10.1069 4.89324 10.2053 5.01459 10.2053ZM6.24043 6.02001C6.24043 5.32526 6.80565 4.76001 7.50043 4.76001C8.1952 4.76001 8.76043 5.32523 8.76043 6.02001C8.76043 6.71479 8.1952 7.28001 7.50043 7.28001C6.80565 7.28001 6.24043 6.71479 6.24043 6.02001Z" fill="white"/>
</svg>
