<?xml version="1.0" encoding="iso-8859-1"?>
<!-- Generator: Adobe Illustrator 19.0.0, SVG Export Plug-In . SVG Version: 6.00 Build 0)  -->
<svg version="1.1" id="Capa_1" xmlns="http://www.w3.org/2000/svg" xmlns:xlink="http://www.w3.org/1999/xlink" x="0px" y="0px"
	 viewBox="0 0 433.633 433.633" style="enable-background:new 0 0 433.633 433.633;" xml:space="preserve">
<g>
	<g>
		<g>
			<path style="fill:#00EFD1;" d="M340.636,55.902v23.51c0,5.771-4.678,10.449-10.449,10.449h-30.824
				c-5.771,0-10.449-4.678-10.449-10.449V18.286c0-5.771,4.678-10.449,10.449-10.449h30.824c5.771,0,10.449,4.678,10.449,10.449
				L340.636,55.902z"/>
			<path style="fill:#00EFD1;" d="M144.718,55.902v23.51c0,5.771-4.678,10.449-10.449,10.449h-30.825
				c-5.771,0-10.449-4.678-10.449-10.449V18.286c0-5.771,4.678-10.449,10.449-10.449h30.825c5.771,0,10.449,4.678,10.449,10.449
				V55.902z"/>
			<polygon style="fill:#00EFD1;" points="295.183,265.927 253.387,306.155 263.314,363.624 211.592,336.457 159.869,363.624 
				169.796,306.155 128,265.927 185.992,257.045 211.592,204.8 237.192,257.045 			"/>
		</g>
		<path style="fill:#00ACEA;" d="M417.436,87.249v69.486H16.196V87.249c0-17.312,14.035-31.347,31.347-31.347h45.453v23.51
			c0,5.771,4.678,10.449,10.449,10.449h30.825c5.771,0,10.449-4.678,10.449-10.449v-23.51h144.196v23.51
			c0,5.771,4.678,10.449,10.449,10.449l0,0h30.824c5.771,0,10.449-4.678,10.449-10.449v-23.51h45.453
			C403.402,55.902,417.436,69.937,417.436,87.249z"/>
		<path style="fill:#D4E1F4;" d="M417.436,156.735v232.49c0,17.312-14.035,31.347-31.347,31.347H47.543
			c-17.312,0-31.347-14.035-31.347-31.347v-232.49H417.436z M253.387,306.155l41.796-40.229l-57.992-8.882l-25.6-52.245
			l-25.6,52.245L128,265.927l41.796,40.229l-9.927,57.469l51.722-27.167l51.722,27.167L253.387,306.155z"/>
	</g>
	<g>
		<path style="fill:#083863;" d="M386.089,47.02h-33.437V18.286C352.653,6.792,341.681,0,330.187,0h-30.824
			c-11.494,0-19.853,6.792-19.853,18.286V47.02H154.122V18.286C154.122,6.792,145.763,0,134.269,0h-30.825
			C91.951,0,80.979,6.792,80.979,18.286V47.02H47.543C26.199,46.425,8.414,63.246,7.819,84.589c-0.025,0.886-0.019,1.774,0.017,2.66
			v301.975c0,22.988,16.718,44.408,39.706,44.408h338.547c22.988,0,39.706-21.42,39.706-44.408V87.249
			c0.874-21.334-15.712-39.337-37.046-40.211C387.863,47.001,386.976,46.996,386.089,47.02z M300.408,20.898h31.347v57.469h-31.347
			V20.898z M101.877,20.898h31.347v57.469h-31.347V20.898z M47.543,67.918h33.437v11.494c0,11.494,10.971,19.853,22.465,19.853
			h30.825c10.672,0.293,19.561-8.122,19.853-18.794c0.01-0.353,0.01-0.706,0-1.059V67.918H279.51v11.494
			c-0.293,10.672,8.122,19.561,18.794,19.853c0.353,0.01,0.706,0.01,1.059,0h30.824c11.494,0,22.465-8.359,22.465-19.853V67.918
			h33.437c9.791-0.617,18.228,6.82,18.845,16.611c0.057,0.906,0.045,1.815-0.037,2.72v59.037H28.734V87.249
			c-0.885-9.77,6.318-18.408,16.088-19.293C45.727,67.874,46.636,67.861,47.543,67.918z M386.089,412.735H47.543
			c-11.494,0-18.808-12.016-18.808-23.51V167.184h376.163v222.041C404.898,400.718,397.583,412.735,386.089,412.735z"/>
		<path style="fill:#083863;" d="M263.314,374.073l-4.702-1.045l-47.02-24.555l-47.02,24.555
			c-5.113,2.675-11.427,0.698-14.102-4.415c-1.053-2.013-1.421-4.315-1.049-6.556l9.404-52.245l-38.139-36.571
			c-2.728-2.949-3.719-7.109-2.612-10.971c1.407-3.57,4.577-6.145,8.359-6.792l52.245-7.837l23.51-47.543
			c2.515-5.194,8.765-7.365,13.959-4.849c2.116,1.025,3.825,2.733,4.849,4.849l23.51,47.543l52.245,7.837
			c3.782,0.646,6.952,3.222,8.359,6.792c1.107,3.862,0.116,8.022-2.612,10.971l-38.139,36.571l9.404,52.245
			c0.551,3.827-1.057,7.646-4.18,9.927C267.794,373.376,265.581,374.113,263.314,374.073z M211.592,326.008l4.702,1.045
			l32.914,17.763l-6.269-37.094c-0.511-3.455,0.653-6.947,3.135-9.404l26.645-25.6l-37.094-5.224
			c-3.364-0.591-6.262-2.716-7.837-5.747l-16.196-33.437l-16.196,33.437c-1.575,3.031-4.472,5.156-7.837,5.747l-37.094,5.224
			l26.645,25.6c2.482,2.457,3.646,5.949,3.135,9.404l-6.269,37.094l32.914-17.763L211.592,326.008z"/>
	</g>
</g>
<g>
</g>
<g>
</g>
<g>
</g>
<g>
</g>
<g>
</g>
<g>
</g>
<g>
</g>
<g>
</g>
<g>
</g>
<g>
</g>
<g>
</g>
<g>
</g>
<g>
</g>
<g>
</g>
<g>
</g>
</svg>
